<?xml version="1.0" encoding="UTF-8"?>
<svg width="100" height="100" viewBox="0 0 100 100" xmlns="http://www.w3.org/2000/svg">
  <rect width="100" height="100" fill="none"/>
  <g fill="#DD6B20">
    <path d="M75,20H25c-2.8,0-5,2.2-5,5v50c0,2.8,2.2,5,5,5h50c2.8,0,5-2.2,5-5V25C80,22.2,77.8,20,75,20z M75,75H25V25h50V75z"/>
    <path d="M65,35H35c-1.1,0-2,0.9-2,2s0.9,2,2,2h30c1.1,0,2-0.9,2-2S66.1,35,65,35z"/>
    <path d="M65,45H35c-1.1,0-2,0.9-2,2s0.9,2,2,2h30c1.1,0,2-0.9,2-2S66.1,45,65,45z"/>
    <path d="M65,55H35c-1.1,0-2,0.9-2,2s0.9,2,2,2h30c1.1,0,2-0.9,2-2S66.1,55,65,55z"/>
    <path d="M50,65H35c-1.1,0-2,0.9-2,2s0.9,2,2,2h15c1.1,0,2-0.9,2-2S51.1,65,50,65z"/>
  </g>
</svg>
